<svg width="20" height="20" viewBox="0 0 20 20" fill="none" xmlns="http://www.w3.org/2000/svg">
<g opacity="0.7">
<path fill-rule="evenodd" clip-rule="evenodd" d="M4.41177 0H15.5882C18.021 0 20 1.97898 20 4.41177V15.5882C20 18.021 18.021 20 15.5882 20H4.41177C1.97898 20 0 18.021 0 15.5882V4.41177C0 1.97898 1.97898 0 4.41177 0ZM4.48529 10C4.48529 13.0408 6.95916 15.5147 10 15.5147C13.0408 15.5147 15.5147 13.0408 15.5147 10C15.5147 6.95916 13.0408 4.48529 10 4.48529C6.95916 4.48529 4.48529 6.95916 4.48529 10ZM15.2206 3.67647C15.2206 4.28567 15.7143 4.77941 16.3235 4.77941C16.9327 4.77941 17.4265 4.28567 17.4265 3.67647C17.4265 3.06727 16.9327 2.57353 16.3235 2.57353C15.7143 2.57353 15.2206 3.06727 15.2206 3.67647ZM10.0002 13.3091C11.8276 13.3091 13.3091 11.8276 13.3091 10.0002C13.3091 8.17291 11.8276 6.69141 10.0002 6.69141C8.17291 6.69141 6.69141 8.17291 6.69141 10.0002C6.69141 11.8276 8.17291 13.3091 10.0002 13.3091Z" fill="#3F5149"/>
</g>
</svg>
