<svg width="58" height="44" viewBox="0 0 58 44" fill="none" xmlns="http://www.w3.org/2000/svg">
<path opacity="0.5" d="M10.32 43.52C7.22667 43.52 4.77333 42.4 2.96 40.16C1.14667 37.92 0.24 34.88 0.24 31.04C0.24 27.2 0.986667 23.52 2.48 20C4.08 16.3733 5.94667 13.44 8.08 11.2C10.32 8.95999 12.6667 6.98666 15.12 5.28C19.6 2.29333 22.7467 0.799997 24.56 0.799997C24.9867 0.799997 25.52 1.44 26.16 2.71999C26.8 3.89333 27.12 4.90666 27.12 5.75999C19.5467 9.28 15.4933 14.6667 14.96 21.92L21.84 31.84C21.84 35.4667 20.6667 38.3467 18.32 40.48C16.08 42.5067 13.4133 43.52 10.32 43.52ZM40.4 43.52C37.3067 43.52 34.8533 42.4 33.04 40.16C31.2267 37.92 30.32 34.88 30.32 31.04C30.32 27.2 31.0667 23.52 32.56 20C34.16 16.3733 36.0267 13.44 38.16 11.2C40.4 8.95999 42.7467 6.98666 45.2 5.28C49.68 2.29333 52.8267 0.799997 54.64 0.799997C55.0667 0.799997 55.6 1.44 56.24 2.71999C56.88 3.89333 57.2 4.90666 57.2 5.75999C49.6267 9.28 45.5733 14.6667 45.04 21.92L51.92 31.84C51.92 35.4667 50.7467 38.3467 48.4 40.48C46.16 42.5067 43.4933 43.52 40.4 43.52Z" fill="#3F5149"/>
</svg>
